<?xml version="1.0" encoding="UTF-8" standalone="no"?>
<!-- Generator: Fusion 360, Shaper Origin Export Add-In, Version 1.8.0  -->

<svg
   shaper:fusionaddin="version:1.8.0"
   width="5.5cm"
   height="12cm"
   version="1.1"
   x="0cm"
   y="0cm"
   viewBox="0 0 5.5 12"
   enable-background="new 0 0 5.5 12"
   xml:space="preserve"
   id="svg1"
   sodipodi:docname="Rocket_Upper_Body.svg"
   inkscape:version="1.4.2 (ebf0e940, 2025-05-08)"
   xmlns:inkscape="http://www.inkscape.org/namespaces/inkscape"
   xmlns:sodipodi="http://sodipodi.sourceforge.net/DTD/sodipodi-0.dtd"
   xmlns="http://www.w3.org/2000/svg"
   xmlns:svg="http://www.w3.org/2000/svg"
   xmlns:shaper="http://www.shapertools.com/namespaces/shaper"><defs
     id="defs1" /><sodipodi:namedview
     id="namedview1"
     pagecolor="#ffffff"
     bordercolor="#000000"
     borderopacity="0.25"
     inkscape:showpageshadow="2"
     inkscape:pageopacity="0.0"
     inkscape:pagecheckerboard="0"
     inkscape:deskcolor="#d1d1d1"
     inkscape:document-units="cm"
     inkscape:zoom="0.88564732"
     inkscape:cx="74.521763"
     inkscape:cy="145.09162"
     inkscape:window-width="976"
     inkscape:window-height="984"
     inkscape:window-x="0"
     inkscape:window-y="25"
     inkscape:window-maximized="0"
     inkscape:current-layer="svg1" /><path
     d="M-0.5,11.8660254 A1,1 120 0,0 0.5,11.8660254 L0.5,11.8660254 0.5459262,11.7918877 0.5934065,11.7183932 0.6423372,11.645407 0.6926148,11.5727944 0.7441357,11.5004204 0.7967963,11.4281503 0.850493,11.3558491 0.9051222,11.2833822 0.9605804,11.2106145 1.0167639,11.1374113 1.0735691,11.0636378 1.1308924,10.9891591 1.1886304,10.9138404 1.2466793,10.8375468 1.3049356,10.7601435 1.3632957,10.6814957 1.421656,10.6014685 1.4799129,10.5199271 1.5379629,10.4367366 1.5957022,10.3517622 1.6530275,10.2648691 1.7098349,10.1759225 1.7660211,10.0847874 1.7938488,10.0383571 1.8214823,9.9913291 1.8489087,9.9436866 1.8761151,9.8954127 1.9030884,9.8464906 1.9298157,9.7969034 1.9562841,9.7466343 1.9824806,9.6956663 2.0083923,9.6439828 2.0340062,9.5915667 2.0593095,9.5384013 2.084289,9.4844696 2.108932,9.4297549 2.1332253,9.3742402 2.1571562,9.3179088 2.1807116,9.2607438 2.2038786,9.2027282 2.2266442,9.1438454 2.2489955,9.0840783 2.2709196,9.0234102 2.2924035,8.9618242 2.3134342,8.8993034 2.3339988,8.835831 2.3540843,8.7713901 2.3736779,8.7059639 2.3927665,8.6395355 2.4113372,8.5720881 2.4293771,8.5036048 2.4468731,8.4340688 2.4638125,8.3634632 2.4801821,8.2917711 2.4959691,8.2189757 2.5111605,8.1450601 2.5257434,8.0700076 2.5397047,7.9938011 2.5530317,7.9164239 2.5657112,7.8378592 2.5777304,7.75809 2.5890764,7.6770995 2.5997361,7.5948709 2.6096966,7.5113873 2.618945,7.4266318 2.6274683,7.3405876 2.6352536,7.2532379 2.642288,7.1645657 2.6485584,7.0745543 2.6540519,6.9831867 2.6587556,6.8904462 2.6626565,6.7963158 2.6657418,6.7007787 2.6679983,6.6038181 2.6694132,6.505417 2.6699736,6.4055588 2.6696665,6.3042264 2.6684789,6.201403 2.6663979,6.0970718 2.6634105,5.991216 2.6595038,5.8838186 2.6546649,5.7748628 2.6488807,5.6643318 2.6421384,5.5522087 2.634425,5.4384766 2.6257276,5.3231188 2.6160331,5.2061183 2.6053287,5.0874582 2.5936015,4.9671218 2.5808383,4.8450922 2.5670264,4.7213525 2.5521527,4.5958859 2.5362043,4.4686755 2.5191683,4.3397044 2.5010317,4.2089559 2.4817815,4.076413 2.4614049,3.9420588 2.4398888,3.8058767 2.4172204,3.6678496 2.3933866,3.5279607 2.3683745,3.3861933 2.3421712,3.2425303 2.3147638,3.096955 2.2861391,2.9494505 2.2562845,2.8 2.75,0 2.25,0 1.6633528,0 1.4271537,0.15 1.6633528,0.273388 1.460439,0.4250676 1.6633528,0.5121273 1.4649998,0.571222 1.6633528,0.7588593 1.4518208,0.8218804 1.6633528,1.0219848 1.3855836,1.1809082 1.6633528,1.3427317 1.0544219,1.9910105 0.1575,1.9910105 0.1575,6.987519 -0,6.987519 -0.1575,6.987519 -0.1575,1.9910105 -1.0544219,1.9910105 -1.6633528,1.3427317 -1.3855836,1.1809082 -1.6633528,1.0219848 -1.4518208,0.8218804 -1.6633528,0.7588593 -1.4649998,0.571222 -1.6633528,0.5121273 -1.460439,0.4250676 -1.6633528,0.273388 -1.4271537,0.15 -1.6633528,0 -2.75,0 -2.2562845,2.8 -2.2562845,2.8 -2.2861391,2.9494505 -2.3147638,3.096955 -2.3421712,3.2425303 -2.3683745,3.3861933 -2.3933866,3.5279607 -2.4172204,3.6678496 -2.4398888,3.8058767 -2.4614049,3.9420588 -2.4817815,4.076413 -2.5010317,4.2089559 -2.5191683,4.3397044 -2.5362043,4.4686755 -2.5521527,4.5958859 -2.5670264,4.7213525 -2.5808383,4.8450922 -2.5936015,4.9671218 -2.6053287,5.0874582 -2.6160331,5.2061183 -2.6257276,5.3231188 -2.634425,5.4384766 -2.6421384,5.5522087 -2.6488807,5.6643318 -2.6546649,5.7748628 -2.6595038,5.8838186 -2.6634105,5.991216 -2.6663979,6.0970718 -2.6684789,6.201403 -2.6696665,6.3042264 -2.6699736,6.4055588 -2.6694132,6.505417 -2.6679983,6.6038181 -2.6657418,6.7007787 -2.6626565,6.7963158 -2.6587556,6.8904462 -2.6540519,6.9831867 -2.6485584,7.0745543 -2.642288,7.1645657 -2.6352536,7.2532379 -2.6274683,7.3405876 -2.618945,7.4266318 -2.6096966,7.5113873 -2.5997361,7.5948709 -2.5890764,7.6770995 -2.5777304,7.75809 -2.5657112,7.8378592 -2.5530317,7.9164239 -2.5397047,7.9938011 -2.5257434,8.0700076 -2.5111605,8.1450601 -2.4959691,8.2189757 -2.4801821,8.2917711 -2.4638125,8.3634632 -2.4468731,8.4340688 -2.4293771,8.5036048 -2.4113372,8.5720881 -2.3927665,8.6395355 -2.3736779,8.7059639 -2.3540843,8.7713901 -2.3339988,8.835831 -2.3134342,8.8993034 -2.2924035,8.9618242 -2.2709196,9.0234102 -2.2489955,9.0840783 -2.2266442,9.1438454 -2.2038786,9.2027282 -2.1807116,9.2607438 -2.1571562,9.3179088 -2.1332253,9.3742402 -2.108932,9.4297549 -2.084289,9.4844696 -2.0593095,9.5384013 -2.0340062,9.5915667 -2.0083923,9.6439828 -1.9824806,9.6956663 -1.9562841,9.7466343 -1.9298157,9.7969034 -1.9030884,9.8464906 -1.8761151,9.8954127 -1.8489087,9.9436866 -1.8214823,9.9913291 -1.7938488,10.0383571 -1.7660211,10.0847874 -1.7098349,10.1759225 -1.6530275,10.2648691 -1.5957022,10.3517622 -1.5379629,10.4367366 -1.4799129,10.5199271 -1.421656,10.6014685 -1.3632957,10.6814957 -1.3049356,10.7601435 -1.2466793,10.8375468 -1.1886304,10.9138404 -1.1308924,10.9891591 -1.0735691,11.0636378 -1.0167639,11.1374113 -0.9605804,11.2106145 -0.9051222,11.2833822 -0.850493,11.3558491 -0.7967963,11.4281503 -0.7441357,11.5004204 -0.6926148,11.5727944 -0.6423372,11.645407 -0.5934065,11.7183932 -0.5459262,11.7918877 -0.5,11.8660254z"
     transform="matrix(1,0,0,-1,2.75,12)"
     fill="rgb(0,0,0)"
     stroke-linecap="round"
     stroke-linejoin="round"
     id="path1"
     style="stroke:#808080;fill:none;vector-effect:non-scaling-stroke;-inkscape-stroke:hairline;stroke-width:0.02645833;stroke-dasharray:none" /></svg>
