<?xml version="1.0" encoding="UTF-8" standalone="no"?>
<!-- Generator: Fusion 360, Shaper Origin Export Add-In, Version 1.8.0  -->

<svg
   shaper:fusionaddin="version:1.8.0"
   width="5.5cm"
   height="12cm"
   version="1.1"
   x="0cm"
   y="0cm"
   viewBox="0 0 5.5 12"
   enable-background="new 0 0 5.5 12"
   xml:space="preserve"
   id="svg2"
   sodipodi:docname="Rocket_Under_Body.svg"
   inkscape:version="1.4.2 (ebf0e940, 2025-05-08)"
   xmlns:inkscape="http://www.inkscape.org/namespaces/inkscape"
   xmlns:sodipodi="http://sodipodi.sourceforge.net/DTD/sodipodi-0.dtd"
   xmlns="http://www.w3.org/2000/svg"
   xmlns:svg="http://www.w3.org/2000/svg"
   xmlns:shaper="http://www.shapertools.com/namespaces/shaper"><defs
     id="defs2" /><sodipodi:namedview
     id="namedview2"
     pagecolor="#ffffff"
     bordercolor="#000000"
     borderopacity="0.25"
     inkscape:showpageshadow="2"
     inkscape:pageopacity="0.0"
     inkscape:pagecheckerboard="0"
     inkscape:deskcolor="#d1d1d1"
     inkscape:document-units="cm"
     inkscape:zoom="0.89582703"
     inkscape:cx="29.02346"
     inkscape:cy="230.51325"
     inkscape:window-width="1152"
     inkscape:window-height="984"
     inkscape:window-x="0"
     inkscape:window-y="25"
     inkscape:window-maximized="0"
     inkscape:current-layer="svg2" /><path
     id="path2"
     transform="matrix(1,0,0,-1,2.75,0)"
     d="m -0.1575,-11.987519 v 5 H 0 0.1575 v -5 m 0.002031,3.13e-4 c 0.11811166,0.01907 0.23357504,0.05947 0.34046873,0.121181 v 0 l 0.0459262,0.07414 0.0474803,0.07349 0.0489307,0.07299 0.0502776,0.07261 0.0515209,0.07237 0.0526606,0.07227 0.0536967,0.0723 0.0546292,0.07247 0.0554582,0.07277 0.0561835,0.0732 0.056805,0.07377 0.057323,0.07448 0.057738,0.07532 0.058049,0.07629 0.058256,0.0774 0.05836,0.07865 0.05836,0.08003 0.058257,0.08154 0.05805,0.08319 0.057739,0.08498 0.057325,0.08689 0.056807,0.08895 0.056186,0.09114 0.027828,0.04643 0.027634,0.047028 0.027426,0.047643 0.027206,0.048274 0.026973,0.048922 0.026727,0.049587 0.026468,0.050269 0.026196,0.050968 0.025912,0.051683 0.025614,0.052416 0.025303,0.053165 0.02498,0.053932 0.024643,0.054715 0.024293,0.055515 0.023931,0.056331 0.023555,0.057165 0.023167,0.058016 0.022766,0.058883 0.022351,0.059767 0.021924,0.060668 0.021484,0.061586 0.021031,0.062521 0.020565,0.063472 0.020085,0.064441 0.019594,0.065426 0.019089,0.066428 0.018571,0.067447 0.01804,0.068483 0.017496,0.069536 0.016939,0.070606 0.01637,0.071692 0.015787,0.072795 0.015191,0.073916 0.014583,0.075052 0.013961,0.076207 0.013327,0.077377 0.012679,0.078565 0.012019,0.079769 0.011346,0.080991 0.01066,0.082229 0.00996,0.083484 0.00925,0.084755 0.00852,0.086044 0.00779,0.08735 0.00703,0.088672 0.00627,0.090011 0.00549,0.091368 0.0047,0.09274 0.0039,0.09413 0.00309,0.095537 0.00226,0.096961 0.00141,0.098401 5.604e-4,0.099858 -3.071e-4,0.1013324 -0.00119,0.1028234 -0.00208,0.1043312 -0.00299,0.1058558 -0.00391,0.1073974 -0.00484,0.1089558 -0.00578,0.110531 -0.00674,0.1121231 -0.00771,0.1137321 -0.0087,0.1153578 -0.00969,0.1170005 -0.010704,0.1186601 -0.011727,0.1203364 -0.012763,0.1220296 -0.013812,0.1237397 -0.014874,0.1254666 -0.015948,0.1272104 -0.017036,0.1289711 -0.018137,0.1307485 -0.01925,0.1325429 -0.020377,0.1343542 -0.021516,0.1361821 -0.022668,0.1380271 -0.023834,0.1398889 -0.025012,0.1417674 -0.026203,0.143663 -0.027407,0.1455753 -0.028625,0.1475045 L 2.2562845,-2.8 2.75,0 H 1.6633528 L 1.4271537,-0.15 1.6633528,-0.273388 1.460439,-0.4250676 1.6633528,-0.5121273 1.4649998,-0.571222 1.6633528,-0.7588593 1.4518208,-0.8218804 1.6633528,-1.0219848 1.3855836,-1.1809082 1.6633528,-1.3427317 1.0544219,-1.9910105 H 0 -1.0544219 l -0.6089309,0.6482788 0.2777692,0.1618235 -0.2777692,0.1589234 0.211532,0.2001044 -0.211532,0.0630211 0.198353,0.1876373 -0.198353,0.0590947 0.2029138,0.0870597 L -1.6633528,-0.273388 -1.4271537,-0.15 -1.6633528,0 H -2.75 l 0.4937155,-2.8 v 0 l -0.029855,-0.1494505 -0.028625,-0.1475045 -0.027407,-0.1455753 -0.026203,-0.143663 -0.025012,-0.1417674 -0.023834,-0.1398889 -0.022668,-0.1380271 -0.021516,-0.1361821 -0.020377,-0.1343542 -0.01925,-0.1325429 -0.018137,-0.1307485 -0.017036,-0.1289711 -0.015948,-0.1272104 -0.014874,-0.1254666 -0.013812,-0.1237397 -0.012763,-0.1220296 -0.011727,-0.1203364 -0.010704,-0.1186601 -0.00969,-0.1170005 -0.0087,-0.1153578 -0.00771,-0.1137321 -0.00674,-0.1121231 -0.00578,-0.110531 -0.00484,-0.1089558 -0.00391,-0.1073974 -0.00299,-0.1058558 -0.00208,-0.1043312 -0.00119,-0.1028234 -3.071e-4,-0.1013324 5.604e-4,-0.099858 0.00141,-0.098401 0.00226,-0.096961 0.00309,-0.095537 0.0039,-0.09413 0.0047,-0.09274 0.00549,-0.091368 0.00627,-0.090011 0.00703,-0.088672 0.00779,-0.08735 0.00852,-0.086044 0.00925,-0.084755 0.00996,-0.083484 0.01066,-0.082229 0.011346,-0.080991 0.012019,-0.079769 0.012679,-0.078565 0.013327,-0.077377 0.013961,-0.076207 0.014583,-0.075052 0.015191,-0.073916 0.015787,-0.072795 0.01637,-0.071692 0.016939,-0.070606 0.017496,-0.069536 0.01804,-0.068483 0.018571,-0.067447 0.019089,-0.066428 0.019594,-0.065426 0.020085,-0.064441 0.020565,-0.063472 0.021031,-0.062521 0.021484,-0.061586 0.021924,-0.060668 0.022351,-0.059767 0.022766,-0.058883 0.023167,-0.058016 0.023555,-0.057165 0.023931,-0.056331 0.024293,-0.055515 0.024643,-0.054715 0.02498,-0.053932 0.025303,-0.053165 0.025614,-0.052416 0.025912,-0.051683 0.026196,-0.050968 0.026468,-0.050269 0.026727,-0.049587 0.026973,-0.048922 0.027206,-0.048274 0.027426,-0.047643 0.027634,-0.047028 0.027828,-0.04643 0.056186,-0.09114 0.056807,-0.08895 0.057325,-0.08689 0.057739,-0.08498 0.05805,-0.08319 0.058257,-0.08154 0.05836,-0.08003 0.05836,-0.07865 0.058256,-0.0774 0.058049,-0.07629 0.057738,-0.07532 0.057323,-0.07448 0.056805,-0.07377 0.0561835,-0.0732 0.0554582,-0.07277 0.0546292,-0.07247 0.0536967,-0.0723 0.0526606,-0.07227 0.0515209,-0.07237 0.0502776,-0.07261 0.0489307,-0.07299 0.0474803,-0.07349 L -0.5,-11.866025 c 0.10640745,-0.06143 0.22130681,-0.101741 0.3388571,-0.120919"
     style="stroke:#000000;vector-effect:non-scaling-stroke;-inkscape-stroke:hairline;stroke-width:0.02645833;stroke-dasharray:none;fill:none" /></svg>
